<svg width="1000" height="1000" viewBox="0 0 1000 1000" fill="none" xmlns="http://www.w3.org/2000/svg">
<path d="M978.138 842.205C979.648 844.765 981.031 847.366 982.289 850H750.551L560.672 528.004L675.835 329.56L978.138 842.205Z" fill="#10B981"/>
<path d="M532.205 282.862C551.878 271.261 573.9 267.164 594.948 269.712L502.4 429.187L496.862 419.795L496.212 418.678C469.057 371.267 485.003 310.696 532.205 282.862Z" fill="#10B981"/>
<path d="M413.8 189.309C441.795 141.702 503.083 125.804 550.69 153.8C590.91 177.451 608.496 224.864 596.105 267.716L325.396 734.194L257.296 850H25.7119C26.7699 847.785 27.915 845.592 29.1514 843.427L29.7998 842.31L413.8 189.309Z" fill="#10B981"/>
</svg>
